<svg width="137" height="137" viewBox="0 0 137 137" fill="none" xmlns="http://www.w3.org/2000/svg">
<path d="M123.557 100.779H123.556H123.557ZM86.5766 84.7483C86.5766 89.7428 91.0543 93.2702 95.682 92.6541C97.8021 92.3719 100.709 92.0788 103.676 92.0612C106.72 92.0431 109.448 92.3208 111.394 92.9646C113.667 93.7167 116.618 95.5258 119.263 97.4258C120.234 98.1235 121.103 98.7882 121.803 99.3414V104.347C121.803 109.21 117.86 113.153 112.996 113.153H16.5876C15.8196 113.153 15.1971 112.531 15.1971 111.763V42.2372C15.1971 41.4693 15.8196 40.8467 16.5876 40.8467H86.5766V84.7483ZM121.803 86.8476C119.574 85.4524 117.051 84.0953 114.598 83.2836C111.101 82.1265 107.081 81.8435 103.615 81.8641C101.158 81.8787 98.7869 82.0504 96.7737 82.2588V23.6971H112.872C117.856 23.8874 121.803 27.9827 121.803 32.9753V86.8476ZM86.5766 30.6496H16.5876C10.1879 30.6496 5 35.8376 5 42.2372V111.763C5 118.162 10.1879 123.35 16.5876 123.35H112.996C123.492 123.35 132 114.842 132 104.347V32.9753C132 22.468 123.668 13.853 113.167 13.5027L113.081 13.5H94.4562C90.1044 13.5 86.5766 17.0278 86.5766 21.3796V30.6496Z" fill="black"/>
<path d="M32.4672 50.1172C36.8854 50.1172 40.4672 53.6989 40.4672 58.1172C40.4672 62.5355 36.8854 66.1172 32.4672 66.1172C28.0489 66.1172 24.4672 62.5355 24.4672 58.1172C24.4672 53.6989 28.0489 50.1172 32.4672 50.1172ZM32.4672 53.1172C29.7057 53.1172 27.4672 55.3558 27.4672 58.1172C27.4672 60.8786 29.7057 63.1172 32.4672 63.1172C35.2286 63.1172 37.4672 60.8786 37.4672 58.1172C37.4672 55.3558 35.2286 53.1172 32.4672 53.1172ZM31.5951 54.3965C32.2691 53.9151 33.2063 54.0712 33.6879 54.7451C34.1693 55.4192 34.0132 56.3563 33.3392 56.8379L33.017 57.0684C32.2095 57.6452 32.165 58.8294 32.9271 59.4648C33.5634 59.9951 33.6496 60.9407 33.1195 61.5771C32.5892 62.2135 31.6436 62.2997 31.0072 61.7695C28.7353 59.8761 28.8664 56.3461 31.2728 54.627L31.5951 54.3965Z" fill="black"/>
<path d="M54.4672 50.1172C58.8854 50.1172 62.4672 53.6989 62.4672 58.1172C62.4672 62.5355 58.8854 66.1172 54.4672 66.1172C50.0489 66.1172 46.4672 62.5355 46.4672 58.1172C46.4672 53.6989 50.0489 50.1172 54.4672 50.1172ZM54.4672 53.1172C51.7057 53.1172 49.4672 55.3558 49.4672 58.1172C49.4672 60.8786 51.7057 63.1172 54.4672 63.1172C57.2286 63.1172 59.4672 60.8786 59.4672 58.1172C59.4672 55.3558 57.2286 53.1172 54.4672 53.1172ZM53.5951 54.3965C54.2691 53.9151 55.2063 54.0712 55.6879 54.7451C56.1693 55.4192 56.0132 56.3563 55.3392 56.8379L55.017 57.0684C54.2095 57.6452 54.165 58.8294 54.9271 59.4648C55.5634 59.9951 55.6496 60.9407 55.1195 61.5771C54.5892 62.2135 53.6436 62.2997 53.0072 61.7695C50.7353 59.8761 50.8664 56.3461 53.2728 54.627L53.5951 54.3965Z" fill="black"/>
<path d="M76.4672 50.1172C80.8854 50.1172 84.4672 53.6989 84.4672 58.1172C84.4672 62.5355 80.8854 66.1172 76.4672 66.1172C72.0489 66.1172 68.4672 62.5355 68.4672 58.1172C68.4672 53.6989 72.0489 50.1172 76.4672 50.1172ZM76.4672 53.1172C73.7057 53.1172 71.4672 55.3558 71.4672 58.1172C71.4672 60.8786 73.7057 63.1172 76.4672 63.1172C79.2286 63.1172 81.4672 60.8786 81.4672 58.1172C81.4672 55.3558 79.2286 53.1172 76.4672 53.1172ZM75.5951 54.3965C76.2691 53.9151 77.2063 54.0712 77.6879 54.7451C78.1693 55.4192 78.0132 56.3563 77.3392 56.8379L77.017 57.0684C76.2095 57.6452 76.165 58.8294 76.9271 59.4648C77.5634 59.9951 77.6496 60.9407 77.1195 61.5771C76.5892 62.2135 75.6436 62.2997 75.0072 61.7695C72.7353 59.8761 72.8664 56.3461 75.2728 54.627L75.5951 54.3965Z" fill="black"/>
<path d="M32.4672 71.1172C36.8854 71.1172 40.4672 74.6989 40.4672 79.1172C40.4672 83.5355 36.8854 87.1172 32.4672 87.1172C28.0489 87.1172 24.4672 83.5355 24.4672 79.1172C24.4672 74.6989 28.0489 71.1172 32.4672 71.1172ZM32.4672 74.1172C29.7057 74.1172 27.4672 76.3558 27.4672 79.1172C27.4672 81.8786 29.7057 84.1172 32.4672 84.1172C35.2286 84.1172 37.4672 81.8786 37.4672 79.1172C37.4672 76.3558 35.2286 74.1172 32.4672 74.1172ZM31.5951 75.3965C32.2691 74.9151 33.2063 75.0712 33.6879 75.7451C34.1693 76.4192 34.0132 77.3563 33.3392 77.8379L33.017 78.0684C32.2095 78.6452 32.165 79.8294 32.9271 80.4648C33.5634 80.9951 33.6496 81.9407 33.1195 82.5771C32.5892 83.2135 31.6436 83.2997 31.0072 82.7695C28.7353 80.8761 28.8664 77.3461 31.2728 75.627L31.5951 75.3965Z" fill="black"/>
<path d="M54.4672 71.1172C58.8854 71.1172 62.4672 74.6989 62.4672 79.1172C62.4672 83.5355 58.8854 87.1172 54.4672 87.1172C50.0489 87.1172 46.4672 83.5355 46.4672 79.1172C46.4672 74.6989 50.0489 71.1172 54.4672 71.1172ZM54.4672 74.1172C51.7057 74.1172 49.4672 76.3558 49.4672 79.1172C49.4672 81.8786 51.7057 84.1172 54.4672 84.1172C57.2286 84.1172 59.4672 81.8786 59.4672 79.1172C59.4672 76.3558 57.2286 74.1172 54.4672 74.1172ZM53.5951 75.3965C54.2691 74.9151 55.2063 75.0712 55.6879 75.7451C56.1693 76.4192 56.0132 77.3563 55.3392 77.8379L55.017 78.0684C54.2095 78.6452 54.165 79.8294 54.9271 80.4648C55.5634 80.9951 55.6496 81.9407 55.1195 82.5771C54.5892 83.2135 53.6436 83.2997 53.0072 82.7695C50.7353 80.8761 50.8664 77.3461 53.2728 75.627L53.5951 75.3965Z" fill="black"/>
<path d="M76.4672 71.1172C80.8854 71.1172 84.4672 74.6989 84.4672 79.1172C84.4672 83.5355 80.8854 87.1172 76.4672 87.1172C72.0489 87.1172 68.4672 83.5355 68.4672 79.1172C68.4672 74.6989 72.0489 71.1172 76.4672 71.1172ZM76.4672 74.1172C73.7057 74.1172 71.4672 76.3558 71.4672 79.1172C71.4672 81.8786 73.7057 84.1172 76.4672 84.1172C79.2286 84.1172 81.4672 81.8786 81.4672 79.1172C81.4672 76.3558 79.2286 74.1172 76.4672 74.1172ZM75.5951 75.3965C76.2691 74.9151 77.2063 75.0712 77.6879 75.7451C78.1693 76.4192 78.0132 77.3563 77.3392 77.8379L77.017 78.0684C76.2095 78.6452 76.165 79.8294 76.9271 80.4648C77.5634 80.9951 77.6496 81.9407 77.1195 82.5771C76.5892 83.2135 75.6436 83.2997 75.0072 82.7695C72.7353 80.8761 72.8664 77.3461 75.2728 75.627L75.5951 75.3965Z" fill="black"/>
<path d="M32.4672 92.1172C36.8854 92.1172 40.4672 95.6989 40.4672 100.117C40.4672 104.535 36.8854 108.117 32.4672 108.117C28.0489 108.117 24.4672 104.535 24.4672 100.117C24.4672 95.6989 28.0489 92.1172 32.4672 92.1172ZM32.4672 95.1172C29.7057 95.1172 27.4672 97.3558 27.4672 100.117C27.4672 102.879 29.7057 105.117 32.4672 105.117C35.2286 105.117 37.4672 102.879 37.4672 100.117C37.4672 97.3558 35.2286 95.1172 32.4672 95.1172ZM31.5951 96.3965C32.2691 95.9151 33.2063 96.0712 33.6879 96.7451C34.1693 97.4192 34.0132 98.3563 33.3392 98.8379L33.017 99.0684C32.2095 99.6452 32.165 100.829 32.9271 101.465C33.5634 101.995 33.6496 102.941 33.1195 103.577C32.5892 104.213 31.6436 104.3 31.0072 103.77C28.7353 101.876 28.8664 98.3461 31.2728 96.627L31.5951 96.3965Z" fill="black"/>
<path d="M54.4672 92.1172C58.8854 92.1172 62.4672 95.6989 62.4672 100.117C62.4672 104.535 58.8854 108.117 54.4672 108.117C50.0489 108.117 46.4672 104.535 46.4672 100.117C46.4672 95.6989 50.0489 92.1172 54.4672 92.1172ZM54.4672 95.1172C51.7057 95.1172 49.4672 97.3558 49.4672 100.117C49.4672 102.879 51.7057 105.117 54.4672 105.117C57.2286 105.117 59.4672 102.879 59.4672 100.117C59.4672 97.3558 57.2286 95.1172 54.4672 95.1172ZM53.5951 96.3965C54.2691 95.9151 55.2063 96.0712 55.6879 96.7451C56.1693 97.4192 56.0132 98.3563 55.3392 98.8379L55.017 99.0684C54.2095 99.6452 54.165 100.829 54.9271 101.465C55.5634 101.995 55.6496 102.941 55.1195 103.577C54.5892 104.213 53.6436 104.3 53.0072 103.77C50.7353 101.876 50.8664 98.3461 53.2728 96.627L53.5951 96.3965Z" fill="black"/>
<path d="M76.4672 92.1172C80.8854 92.1172 84.4672 95.6989 84.4672 100.117C84.4672 104.535 80.8854 108.117 76.4672 108.117C72.0489 108.117 68.4672 104.535 68.4672 100.117C68.4672 95.6989 72.0489 92.1172 76.4672 92.1172ZM76.4672 95.1172C73.7057 95.1172 71.4672 97.3558 71.4672 100.117C71.4672 102.879 73.7057 105.117 76.4672 105.117C79.2286 105.117 81.4672 102.879 81.4672 100.117C81.4672 97.3558 79.2286 95.1172 76.4672 95.1172ZM75.5951 96.3965C76.2691 95.9151 77.2063 96.0712 77.6879 96.7451C78.1693 97.4192 78.0132 98.3563 77.3392 98.8379L77.017 99.0684C76.2095 99.6452 76.165 100.829 76.9271 101.465C77.5634 101.995 77.6496 102.941 77.1195 103.577C76.5892 104.213 75.6436 104.3 75.0072 103.77C72.7353 101.876 72.8664 98.3461 75.2728 96.627L75.5951 96.3965Z" fill="black"/>
<path d="M107.898 26.9414C103.802 26.9414 100.482 30.2619 100.482 34.3574C100.482 38.4532 103.802 41.7744 107.898 41.7744C111.994 41.7744 115.314 38.4532 115.314 34.3574C115.314 30.2619 111.993 26.9414 107.898 26.9414ZM107.898 29.7227C110.458 29.7227 112.532 31.7978 112.533 34.3574C112.533 36.9173 110.458 38.9932 107.898 38.9932C105.338 38.9932 103.263 36.9173 103.263 34.3574C103.263 31.7978 105.338 29.7227 107.898 29.7227ZM108.706 30.9092C108.082 30.4628 107.212 30.6076 106.766 31.2324C106.32 31.8572 106.465 32.7255 107.089 33.1719L107.388 33.3857C108.137 33.9205 108.178 35.0184 107.471 35.6074C106.881 36.099 106.802 36.9755 107.293 37.5654C107.785 38.1552 108.661 38.2355 109.251 37.7441C111.357 35.9891 111.236 32.7168 109.005 31.123L108.706 30.9092Z" fill="black"/>
<path d="M107.898 45.4824C103.802 45.4824 100.482 48.8027 100.482 52.8984C100.482 56.994 103.802 60.3145 107.898 60.3145C111.993 60.3144 115.314 56.994 115.314 52.8984C115.314 48.8027 111.994 45.4824 107.898 45.4824ZM107.898 48.2627C110.458 48.2627 112.533 50.3386 112.533 52.8984C112.532 55.4581 110.458 57.5332 107.898 57.5332C105.338 57.5332 103.263 55.4581 103.263 52.8984C103.263 50.3386 105.338 48.2627 107.898 48.2627ZM108.706 49.4492C108.082 49.0029 107.212 49.1476 106.766 49.7725C106.32 50.3972 106.465 51.2655 107.089 51.7119L107.388 51.9258C108.137 52.4605 108.178 53.5584 107.471 54.1475C106.881 54.6391 106.802 55.5156 107.293 56.1055C107.785 56.6953 108.661 56.7756 109.251 56.2842C111.357 54.5291 111.236 51.2568 109.005 49.6631L108.706 49.4492Z" fill="black"/>
<path d="M107.898 64.0225C103.802 64.0225 100.482 67.3427 100.482 71.4385C100.482 75.5341 103.802 78.8545 107.898 78.8545C111.993 78.8545 115.314 75.5341 115.314 71.4385C115.314 67.3427 111.994 64.0225 107.898 64.0225ZM107.898 66.8027C110.458 66.8027 112.533 68.8786 112.533 71.4385C112.532 73.9982 110.458 76.0732 107.898 76.0732C105.338 76.0732 103.263 73.9982 103.263 71.4385C103.263 68.8786 105.338 66.8027 107.898 66.8027ZM108.706 67.9893C108.082 67.5429 107.212 67.6877 106.766 68.3125C106.32 68.9374 106.464 69.8066 107.089 70.2529L107.388 70.4658C108.137 71.0005 108.178 72.0985 107.471 72.6875C106.881 73.1791 106.802 74.0556 107.293 74.6455C107.785 75.2354 108.661 75.3157 109.251 74.8242C111.357 73.0691 111.236 69.7968 109.005 68.2031L108.706 67.9893Z" fill="black"/>
</svg>